# xmcd
#
# Track frame offsets:
# 150
# 22046
# 41058
# 59302
# 74525
# 96326
# 112912
# 127533
# 144288
# 157532
# 171287
#
# Disc length: 2497 seconds
#
# Revision: 1
# Processed by: cddbd v1.4PL0 Copyright (c) Steve Scherf et al.
# Submitted via: CedeCatalogueitor 2.5 http://usuarios.lycos.es/kakasboy
#
DISCID=8809bf0b
DTITLE=Los Lobos - By The Light Of The Moon
DYEAR=1900
DGENRE=
TTITLE0=One Time One Night
TTITLE1=Shakin' Shakin' Snakes
TTITLE2=Is This All There All There Is
TTITLE3=Prenda Del Alma
TTITLE4=All I Wanted To Do Was Dance
TTITLE5=Set Me Free
TTITLE6=Hardest Time
TTITLE7=My Baby's Gone
TTITLE8=River Ot Fools
TTITLE9=Mess We're In
TTITLE10=Tears Of Good
EXTD=
EXTT0=
EXTT1=
EXTT2=
EXTT3=
EXTT4=
EXTT5=
EXTT6=
EXTT7=
EXTT8=
EXTT9=
EXTT10=
PLAYORDER=
